PathFileType	4	(X/Y/Z)	C:\Users\Biomechanik\SynologyDrive\AlexP\Athlete_03\Athlete_3_25_03_31\Squat_bar_04\marker_experimental.trc
DataRate	CameraRate	NumFrames	NumMarkers	Units	OrigDataRate	OrigDataStartFrame	OrigNumFrames
200.000000	200.000000	4	55	mm	200.000000	230	461
Frame#	Time	BL			BR			GLAB			RFHD			LFHD			C7			T6			SPINMOL			SPINM2			SPINM3			T12			BELTOL			BELT2			BELT3			SACROL			SACR2			SACR3			LTHOL			LTH2			LTH3			LSHAOL			LSHA2			LSHA3			LHEE			LTOE			LM5			RTHOL			RTH2			RTH3			RSHAOL			RSHA2			RSHA3			RHEE			RTOE			RM5			STRN			XIPH			LACR			LUAOL			LUA2			LUA3			LLAOL			LLA2			LLA3			LWRR			LWRU			RACR			RUAOL			RUA2			RUA3			RLAOL			RLA2			RLA3			RWRR			RWRU			
		X1	Y1	Z1	X2	Y2	Z2	X3	Y3	Z3	X4	Y4	Z4	X5	Y5	Z5	X6	Y6	Z6	X7	Y7	Z7	X8	Y8	Z8	X9	Y9	Z9	X10	Y10	Z10	X11	Y11	Z11	X12	Y12	Z12	X13	Y13	Z13	X14	Y14	Z14	X15	Y15	Z15	X16	Y16	Z16	X17	Y17	Z17	X18	Y18	Z18	X19	Y19	Z19	X20	Y20	Z20	X21	Y21	Z21	X22	Y22	Z22	X23	Y23	Z23	X24	Y24	Z24	X25	Y25	Z25	X26	Y26	Z26	X27	Y27	Z27	X28	Y28	Z28	X29	Y29	Z29	X30	Y30	Z30	X31	Y31	Z31	X32	Y32	Z32	X33	Y33	Z33	X34	Y34	Z34	X35	Y35	Z35	X36	Y36	Z36	X37	Y37	Z37	X38	Y38	Z38	X39	Y39	Z39	X40	Y40	Z40	X41	Y41	Z41	X42	Y42	Z42	X43	Y43	Z43	X44	Y44	Z44	X45	Y45	Z45	X46	Y46	Z46	X47	Y47	Z47	X48	Y48	Z48	X49	Y49	Z49	X50	Y50	Z50	X51	Y51	Z51	X52	Y52	Z52	X53	Y53	Z53	X54	Y54	Z54	X55	Y55	Z55	

231	1.15	208.9458923339844	797.5025024414064	-2240.2314453125	253.4355316162109	879.1365356445312	-221.2738647460937	531.56982421875	996.5189208984376	-1193.539916992188	481.6767578125	1024.276733398438	-1131.1865234375	490.3764038085938	1022.279296875	-1267.22216796875	285.63134765625	898.0628662109376	-1200.984130859375	157.8474578857422	790.4165649414064	-1206.818359375	134.7442321777344	769.1750488281251	-1227.014282226562	127.1338882446289	762.9328613281251	-1177.58251953125	95.79299926757812	717.1812133789064	-1213.991455078125	66.82672119140625	667.9720458984376	-1212.852905273438	31.79042816162109	659.2608642578126	-1227.19921875	31.1942253112793	655.3347778320314	-1177.098022460938	-4.335869789123535	607.6342773437501	-1207.369384765625	-61.31274795532227	485.2056579589844	-1234.117797851562	-62.04069137573242	482.5348205566407	-1182.048950195312	-66.674560546875	422.6757507324219	-1211.242309570312	142.3188018798828	382.2901000976564	-1507.629638671875	192.4471282958984	327.2079467773439	-1534.807861328125	193.7324981689453	377.2794799804689	-1541.156616210938	239.6737213134766	291.7203063964845	-1618.71533203125	180.2714996337891	252.6146545410157	-1582.379028320312	222.1478118896484	234.4332580566407	-1603.914184570312	115.8276443481445	71.71170806884774	-1462.61572265625	317.2468872070312	48.80191421508798	-1539.568359375	237.1951446533203	25.98871040344248	-1620.296875	131.3400115966797	365.3097534179688	-911.6549072265625	172.3242797851562	423.3060607910157	-874.1415405273438	182.3065490722656	374.6527404785157	-876.5317993164062	224.0229339599609	302.5523376464844	-800.9490356445312	223.5546722412109	223.7003936767579	-802.4742431640625	192.5598907470703	254.8622283935547	-825.7876586914062	95.92039489746094	67.04397583007818	-969.4103393554688	281.3612060546875	45.61376190185553	-872.033203125	192.1498413085938	39.0379028320313	-800.0145263671875	397.7385559082031	733.2454223632814	-1207.217529296875	352.7605590820312	593.2324218750001	-1199.619018554688	323.5408630371094	838.7510986328126	-1376.0224609375	195.0724945068359	738.4935913085939	-1465.9404296875	139.6253356933594	704.8062744140626	-1453.89111328125	168.4799041748047	684.6729736328126	-1491.043212890625	129.9106597900391	621.2681884765626	-1557.973388671875	199.8687744140625	605.4038085937501	-1592.670288085938	178.0503692626953	650.0278930664064	-1584.284057617188	244.9864501953125	720.2560424804689	-1624.178833007812	260.0050048828125	748.1378784179689	-1551.717407226562	339.3295593261719	839.3702392578126	-1040.735961914062	216.2590789794922	745.9967041015626	-949.6822509765625	183.4420318603516	696.357666015625	-919.6512451171875	162.2633514404297	711.5449218750001	-965.260986328125	170.3603210449219	631.240234375	-836.2525634765625	182.8515930175781	709.7340698242188	-827.1434936523438	214.6588439941406	670.4327392578125	-817.0667724609375	259.1972351074219	752.0775756835938	-800.6153564453125	286.4142456054688	778.0612182617188	-871.4771728515625	
232	1.155	208.9486999511719	794.7738037109376	-2240.3544921875	253.2970581054688	876.8582153320312	-221.4167175292968	531.3128662109375	994.1678466796876	-1193.696411132812	481.400390625	1021.90478515625	-1131.352661132812	490.0907287597656	1019.876831054688	-1267.37451171875	285.4581604003906	895.5704345703126	-1201.108154296875	157.7393951416016	787.9176635742189	-1206.933837890625	134.6426696777344	766.6712036132814	-1227.15966796875	127.0071792602539	760.4371337890626	-1177.726440429688	95.68959808349609	714.6712036132814	-1214.15087890625	66.76523590087891	665.6386718750001	-1213.022216796875	31.68393516540527	656.9415283203126	-1227.3759765625	31.10935020446777	653.0012207031251	-1177.27880859375	-4.288887977600098	605.2318115234376	-1207.544677734375	-61.17697143554688	482.3507080078126	-1234.322631835938	-61.96085357666016	479.7306823730469	-1182.240600585938	-66.30422210693359	419.8184814453126	-1211.408081054688	142.8101348876953	380.6729431152345	-1507.648803710938	193.1425933837891	326.0272216796876	-1535.096801757812	194.2295532226562	376.1226806640626	-1541.205444335938	240.1056671142578	291.5447692871095	-1618.693237304688	180.6397399902344	252.532211303711	-1582.366821289062	222.4979553222656	234.2815704345704	-1603.876098632812	115.8906402587891	71.70082092285165	-1462.529663085938	317.2854919433594	48.74913787841806	-1539.5009765625	237.2073364257812	26.04024887084971	-1620.233154296875	131.6756286621094	363.8328857421876	-911.7015380859375	172.3051452636719	422.2052001953126	-874.372314453125	182.5339202880859	373.5918579101563	-876.5375366210938	224.2053070068359	302.4404602050782	-800.9141845703125	223.7263336181641	223.5878906250001	-802.4786987304688	192.7530670166016	254.7671203613282	-825.8032836914062	96.00123596191406	67.04157257080084	-969.4840087890625	281.3902587890625	45.5898170471192	-872.0616455078125	192.1900787353516	39.08827590942388	-800.0726318359375	397.7625427246094	730.8356323242189	-1207.317016601562	352.8644714355469	590.8474731445314	-1199.630981445312	323.4679260253906	836.1838378906251	-1376.142578125	195.0102233886719	735.9592285156251	-1466.078002929688	139.5519104003906	702.2760009765626	-1454.036376953125	168.3996124267578	682.1450805664064	-1491.198120117188	129.8439788818359	618.7150878906251	-1558.099365234375	199.7939910888672	602.8120117187501	-1592.762329101562	178.0117950439453	647.4486694335939	-1584.400024414062	244.9663848876953	717.6671142578126	-1624.27734375	259.9530029296875	745.5703735351564	-1551.828979492188	339.2316589355469	836.9086303710939	-1040.837646484375	216.2156372070312	743.5462646484376	-949.7501831054688	183.4072875976562	693.9010620117188	-919.7139892578125	162.2203979492188	709.0910644531251	-965.3199462890625	170.3400115966797	628.7652587890625	-836.3413696289062	182.803466796875	707.2615356445312	-827.2313232421875	214.6330261230469	667.9641723632812	-817.1566772460938	259.1240234375	749.6467895507812	-800.7238159179688	286.31396484375	775.625244140625	-871.5943603515625	
233	1.16	208.9543304443359	792.0943603515626	-2240.484619140625	253.1548156738281	874.612060546875	-221.5656433105468	531.051513671875	991.8612670898439	-1193.8583984375	481.1184997558594	1019.577026367188	-1131.525024414062	489.7970886230469	1017.510620117188	-1267.5302734375	285.2873229980469	893.1161499023439	-1201.233276367188	157.6314697265625	785.4611206054689	-1207.055053710938	134.5440673828125	764.2103271484376	-1227.311645507812	126.8776702880859	757.9855957031251	-1177.88037109375	95.58359527587891	712.2055664062501	-1214.3203125	66.68765258789062	663.3489379882814	-1213.196044921875	31.5643253326416	654.6628417968751	-1227.557739257812	31.01198577880859	650.7091674804689	-1177.463745117188	-4.254579544067383	602.8688964843751	-1207.728881835938	-61.0400505065918	479.5422058105469	-1234.523803710938	-61.86677551269531	476.9710083007813	-1182.430786132812	-65.93564605712891	417.0090637207032	-1211.567016601562	143.2875518798828	379.0776672363282	-1507.658935546875	193.8267059326172	324.8759765625001	-1535.377807617188	194.7190704345703	374.9891662597657	-1541.250122070312	240.5301208496094	291.3750000000001	-1618.665405273438	181.0036163330078	252.4504699707032	-1582.352416992188	222.8467712402344	234.1307067871095	-1603.8349609375	115.9531173706055	71.69023132324227	-1462.444702148438	317.3251647949219	48.69671249389658	-1539.433227539062	237.2188873291016	26.09166145324717	-1620.169189453125	131.9974365234375	362.3955383300782	-911.744140625	172.2779083251953	421.1350097656251	-874.600341796875	182.7445068359375	372.5621032714844	-876.5382080078125	224.3687133789062	302.3351135253907	-800.8779907226562	223.8883514404297	223.4825286865235	-802.4852294921875	192.9331665039062	254.6754455566407	-825.8195190429688	96.08352661132812	67.03746795654303	-969.5562744140625	281.4181213378906	45.56642913818365	-872.0926513671875	192.2295684814453	39.13826751708989	-800.1297607421875	397.7831420898438	728.4617919921876	-1207.41455078125	352.9615173339844	588.5004272460939	-1199.639404296875	323.3991394042969	833.6552124023439	-1376.263305664062	194.9492950439453	733.4672851562501	-1466.219116210938	139.4796752929688	699.7901000976564	-1454.18359375	168.3193817138672	679.6607055664064	-1491.354858398438	129.7716674804688	616.2037353515626	-1558.22412109375	199.7146453857422	600.2669677734376	-1592.861938476562	177.959716796875	644.9139404296876	-1584.519409179688	244.9409637451172	715.1221313476564	-1624.384399414062	259.8994140625	743.0446777343751	-1551.946899414062	339.1300354003906	834.4854125976564	-1040.93994140625	216.1633758544922	741.1371459960939	-949.8209838867188	183.3654937744141	691.4864501953125	-919.7799072265625	162.1701507568359	706.6790161132814	-965.3823852539062	170.3103942871094	626.3319091796875	-836.4344482421875	182.7518615722656	704.8272705078125	-827.3214721679688	214.5984191894531	665.5365600585938	-817.2496948242188	259.0437622070312	747.2542114257812	-800.8353881835938	286.2057495117188	773.2262573242188	-871.7141723632812	
234	1.165	208.9627380371094	789.4640502929689	-2240.621826171875	253.0090484619141	872.396484375	-221.7200012207031	530.7866821289062	989.5994262695314	-1194.024169921875	480.83154296875	1017.293823242188	-1131.702026367188	489.4971618652344	1015.181823730469	-1267.688598632812	285.119140625	890.7006835937501	-1201.360107421875	157.5234680175781	783.0482788085939	-1207.182006835938	134.4480438232422	761.7935791015626	-1227.470458984375	126.7446823120117	755.5798339843751	-1178.044311523438	95.47505950927734	709.7850952148439	-1214.499755859375	66.59403991699219	661.1033325195314	-1213.37451171875	31.43410110473633	652.4247436523439	-1227.74462890625	30.90109634399414	648.4589843750001	-1177.652587890625	-4.237987518310547	600.5479736328126	-1207.922607421875	-60.90300750732422	476.7780456542969	-1234.72216796875	-61.75932312011719	474.2534179687501	-1182.620849609375	-65.56978607177734	414.2449951171876	-1211.720703125	143.7510223388672	377.5045166015626	-1507.661010742188	194.5020294189453	323.7546691894532	-1535.650756835938	195.2019500732422	373.8794555664064	-1541.291748046875	240.9454193115234	291.2118530273439	-1618.632568359375	181.3607940673828	252.3710021972657	-1582.335815429688	223.1922454833984	233.9820556640626	-1603.790893554688	116.0146636962891	71.68045043945321	-1462.361572265625	317.36572265625	48.64491271972665	-1539.365844726562	237.2296295166016	26.14252471923838	-1620.106079101562	132.3057098388672	360.9967346191407	-911.7825317382812	172.2419738769531	420.0949401855469	-874.8258056640625	182.9384155273438	371.5628662109376	-876.5333862304688	224.5128784179688	302.2357788085938	-800.84033203125	224.0407867431641	223.3839111328126	-802.493896484375	193.1002502441406	254.5866088867188	-825.8358154296875	96.16712951660156	67.03166198730474	-969.627197265625	281.4445495605469	45.54338455200201	-872.126708984375	192.2685699462891	39.18783569335942	-800.1860961914062	397.8000793457031	726.1227416992189	-1207.509765625	353.0504760742188	586.1903686523439	-1199.645263671875	323.3348083496094	831.1666259765626	-1376.384765625	194.8912811279297	731.0181884765626	-1466.3642578125	139.4095153808594	697.3489379882814	-1454.335083007812	168.2405548095703	677.2199707031251	-1491.51416015625	129.6956176757812	613.7341308593751	-1558.348022460938	199.6328735351562	597.7689819335939	-1592.968994140625	177.8960418701172	642.4241943359376	-1584.642944335938	244.911376953125	712.6219482421876	-1624.499877929688	259.8449401855469	740.5616455078126	-1552.071044921875	339.0251770019531	832.1009521484376	-1041.043334960938	216.1027069091797	738.7699584960939	-949.8943481445312	183.316162109375	689.1145629882812	-919.8489990234375	162.1125335693359	704.3099975585939	-965.447998046875	170.270263671875	623.94091796875	-836.5321655273438	182.6964111328125	702.4317016601562	-827.4140014648438	214.5537414550781	663.150634765625	-817.34619140625	258.9560852050781	744.8999633789062	-800.9500732421875	286.0894165039062	770.8646240234375	-871.83642578125	
